<?xml version="1.0" encoding="UTF-8"?>
<svg xmlns="http://www.w3.org/2000/svg" xmlns:xlink="http://www.w3.org/1999/xlink" width="40px" height="40px" viewBox="0 0 40 40" version="1.1">
<g id="surface1">
<path style=" stroke:none;fill-rule:nonzero;fill:rgb(0%,0%,0%);fill-opacity:1;" d="M 20.011719 10.515625 L 5.738281 22.285156 C 5.738281 22.300781 5.734375 22.324219 5.726562 22.359375 C 5.71875 22.390625 5.710938 22.417969 5.710938 22.433594 L 5.710938 34.351562 C 5.710938 34.78125 5.871094 35.152344 6.183594 35.46875 C 6.5 35.78125 6.871094 35.9375 7.300781 35.9375 L 16.835938 35.9375 L 16.835938 26.40625 L 23.191406 26.40625 L 23.191406 35.941406 L 32.722656 35.941406 C 33.15625 35.941406 33.527344 35.78125 33.839844 35.46875 C 34.15625 35.152344 34.3125 34.78125 34.3125 34.351562 L 34.3125 22.433594 C 34.3125 22.367188 34.304688 22.316406 34.289062 22.285156 Z M 20.011719 10.515625 "/>
<path style=" stroke:none;fill-rule:nonzero;fill:rgb(0%,0%,0%);fill-opacity:1;" d="M 39.75 19.601562 L 34.3125 15.085938 L 34.3125 4.957031 C 34.3125 4.722656 34.238281 4.535156 34.089844 4.382812 C 33.941406 4.234375 33.75 4.160156 33.519531 4.160156 L 28.75 4.160156 C 28.519531 4.160156 28.328125 4.234375 28.179688 4.382812 C 28.03125 4.535156 27.957031 4.722656 27.957031 4.957031 L 27.957031 9.796875 L 21.898438 4.730469 C 21.371094 4.300781 20.742188 4.085938 20.011719 4.085938 C 19.285156 4.085938 18.65625 4.300781 18.125 4.730469 L 0.277344 19.601562 C 0.109375 19.734375 0.0195312 19.914062 0.00390625 20.136719 C -0.015625 20.359375 0.0429688 20.554688 0.175781 20.71875 L 1.714844 22.558594 C 1.847656 22.707031 2.023438 22.796875 2.238281 22.832031 C 2.4375 22.847656 2.632812 22.789062 2.832031 22.65625 L 20.011719 8.332031 L 37.191406 22.65625 C 37.324219 22.773438 37.5 22.832031 37.714844 22.832031 L 37.789062 22.832031 C 38.003906 22.796875 38.175781 22.707031 38.308594 22.558594 L 39.851562 20.71875 C 39.980469 20.554688 40.039062 20.359375 40.023438 20.136719 C 40.007812 19.914062 39.914062 19.734375 39.75 19.601562 Z M 39.75 19.601562 "/>
</g>
</svg>
